<?xml version="1.0" encoding="UTF-8"?>
<svg id="_레이어_1" data-name="레이어_1" xmlns="http://www.w3.org/2000/svg" version="1.1" viewBox="0 0 159 40">
  <!-- Generator: Adobe Illustrator 30.0.0, SVG Export Plug-In . SVG Version: 2.1.1 Build 123)  -->
  <defs>
    <style>
      .st0 {
        fill: #2c5836;
      }

      .st1 {
        fill: #a68640;
      }
    </style>
  </defs>
  <path d="M58.5,31.47v-8.38h-6.18v8.38h-2.76v-8.38h-5.93v-2.34h23.56v2.34h-5.93v8.38h-2.76ZM64.04,11.87v1c0,3.29-3.4,5.51-8.63,5.51s-8.63-2.23-8.63-5.51v-1c0-3.29,3.4-5.51,8.63-5.51s8.63,2.23,8.63,5.51ZM61.34,12.82v-.89c0-1.87-2.37-3.17-5.93-3.17s-5.93,1.31-5.93,3.17v.89c0,1.87,2.37,3.17,5.93,3.17s5.93-1.31,5.93-3.17Z"/>
  <path d="M76.02,15.85c-.17.47-1,1.39-1.87,2.17-1.17,1.06-2.76,2.26-4.32,3.34l-1.62-1.98c1.78-1.25,3.54-2.59,4.51-3.51,1.36-1.28,1.81-2.4,1.81-4.43v-1.59h-5.46v-2.37h13.39v2.37h-5.15v1.48c0,1.78.25,2.84,1.45,3.87,1.34,1.17,2.84,2.26,4.46,3.34l-1.56,2c-1.45-1-2.7-1.95-4.04-3.06-.83-.7-1.39-1.23-1.59-1.64h-.03ZM75.58,28.86h13.81v2.39h-16.57v-8.66h2.76v6.27ZM86.13,24.15V5.86h2.73v18.3h-2.73Z"/>
  <path d="M113.23,7.45v2.71h-11.06v7.68h10.39v2.71h-10.39v9.88h-3.16V7.45h14.22Z"/>
  <path d="M125.64,25.28c0,2.29-.48,4.18-1.43,5.66l2.64,3.11h-2.59l-1.34-1.59c-1.34,1.27-3.16,1.86-4.84,1.86h-.14c-2.75,0-5.36-1.34-5.36-4.23v-.52c0-2.09,1.27-3.41,3.91-4.73-.91-1.07-1.95-2.23-1.95-3.66v-.41c0-1.77,1.41-3.34,4.07-3.34,2.52,0,4.09,1.73,4.09,3.34v.43c0,1.45-.7,2.73-3.18,4.2l3.32,3.88c.5-.95.75-2.11.75-4.02h2.07ZM121.62,30.96l-3.84-4.59c-2.14,1.14-3.09,1.95-3.09,3.29v.36c0,1.27,1.43,2.34,3.34,2.34,1.43,0,2.68-.52,3.59-1.41ZM116.58,21.13c0,.82.91,1.89,1.7,2.82,1.98-1.14,2.34-2.02,2.34-2.82v-.25c0-.84-.91-1.52-2.02-1.52-1.25,0-2.02.75-2.02,1.52v.25Z"/>
  <path d="M139.86,24.66v-.51c0-2.01-1.31-3.03-5.04-3.82-4.34-.92-7.65-2.26-7.65-6.41v-.57c0-3.12,2.58-6.15,7.87-6.15,2.81,0,5.07.7,7.01,2.01l-1.5,2.45c-1.69-1.15-3.38-1.63-5.48-1.63-2.87,0-4.75,1.47-4.75,3.28v.51c0,2.1,1.88,2.87,5.29,3.63,5.67,1.28,7.43,3.28,7.43,6.47v.57c0,4.21-3.47,6.38-8.19,6.38-3.25,0-6.09-1.18-8-2.71l1.59-2.58c1.72,1.31,4.53,2.42,6.5,2.42,3.25,0,4.91-1.53,4.91-3.35Z"/>
  <g>
    <path class="st0" d="M33.58,4.9c-1.36.07-2,.78-2.78,1.79-2.41,3.12-4.35,7.04-6.45,10.4.23,2.57-.41,6.02,0,8.49.1.62.63,1.4,1.21,1.63.39.16,1.37.14,1.25.71h-8.31c.02-.12-.03-.44,0-.47.08-.08,1.53,0,2.14-.77.3-.37.44-1.18.48-1.66.12-1.48.21-6.13-.06-7.43-.09-.46-.49-.99-.73-1.41-1.84-3.21-4.14-6.31-6.05-9.49-.71-.81-1.45-1.49-2.53-1.74-.74-.17-.94.27-.84-.76h3.5c.64,0,2.08.65,2.61,1.07,1.42,1.14,4.45,6.73,5.62,8.62.14.22.72,1.44.8,1.47.07.02.32.01.39-.03,1.12-2.1,2.5-4.05,3.67-6.11.54-.95,1.8-2.73,1.27-3.83-.26-.53-1.38-.37-1.61-.53-.3-.2-.14-.61.3-.66,1.74-.2,4.28.01,6.12,0v.71Z"/>
    <path class="st1" d="M30.92,13.49c2.59,0,5.18,0,7.77,0,.38.03.3.41.3.71-1.1-.14-1.96.28-2.22,1.39-.51,2.1-.26,5.77-.27,8.04-.03,4.56,1.16,11.5-4.41,13.38-2.57.87-8.38.54-8.29-3.18.02-.85.13-1.77,1.2-1.43.64.2.89,1.32,1.2,1.88.97,1.71,2.61,2.42,4.52,1.72,2.17-.79,2.59-3.72,2.7-5.72.2-3.8.19-8.78,0-12.59-.04-.7-.11-1.96-.41-2.55-.47-.91-1.14-.99-2.08-.94v-.71Z"/>
  </g>
</svg>